<svg width="24" height="24" viewBox="0 0 24 24" fill="none" xmlns="http://www.w3.org/2000/svg">
<path d="M12 0.5C18.3513 0.5 23.5 5.64873 23.5 12C23.5 18.3513 18.3513 23.5 12 23.5C5.64873 23.5 0.5 18.3513 0.5 12C0.5 5.64873 5.64873 0.5 12 0.5Z" stroke="#161616"/>
<path d="M7.904 17.168C7.60533 17.168 7.386 17.0933 7.246 16.944C7.11533 16.7947 7.05 16.5987 7.05 16.356V16.174C7.05 15.9313 7.11533 15.7353 7.246 15.586C7.386 15.4367 7.60533 15.362 7.904 15.362C8.20267 15.362 8.41733 15.4367 8.548 15.586C8.688 15.7353 8.758 15.9313 8.758 16.174V16.356C8.758 16.5987 8.688 16.7947 8.548 16.944C8.41733 17.0933 8.20267 17.168 7.904 17.168ZM11.7185 17.168C11.4198 17.168 11.2005 17.0933 11.0605 16.944C10.9298 16.7947 10.8645 16.5987 10.8645 16.356V16.174C10.8645 15.9313 10.9298 15.7353 11.0605 15.586C11.2005 15.4367 11.4198 15.362 11.7185 15.362C12.0171 15.362 12.2318 15.4367 12.3625 15.586C12.5025 15.7353 12.5725 15.9313 12.5725 16.174V16.356C12.5725 16.5987 12.5025 16.7947 12.3625 16.944C12.2318 17.0933 12.0171 17.168 11.7185 17.168ZM15.5329 17.168C15.2342 17.168 15.0149 17.0933 14.8749 16.944C14.7442 16.7947 14.6789 16.5987 14.6789 16.356V16.174C14.6789 15.9313 14.7442 15.7353 14.8749 15.586C15.0149 15.4367 15.2342 15.362 15.5329 15.362C15.8316 15.362 16.0462 15.4367 16.1769 15.586C16.3169 15.7353 16.3869 15.9313 16.3869 16.174V16.356C16.3869 16.5987 16.3169 16.7947 16.1769 16.944C16.0462 17.0933 15.8316 17.168 15.5329 17.168Z" fill="#161616"/>
</svg>
