<svg width="25" height="24" viewBox="0 0 25 24" fill="none" xmlns="http://www.w3.org/2000/svg">
<path d="M13.25 13C13.25 13.4142 12.9142 13.75 12.5 13.75C12.0858 13.75 11.75 13.4142 11.75 13V4.53807L11.7439 4.54522C11.5333 4.79382 11.327 5.05655 11.1341 5.30225L11.0893 5.3593C10.8971 5.60404 10.6949 5.86115 10.5378 6.02274C10.2491 6.31977 9.77428 6.32651 9.47726 6.03781C9.18023 5.74911 9.17349 5.27428 9.46219 4.97726C9.55089 4.886 9.69651 4.70419 9.90971 4.43276L9.95674 4.37285C10.1468 4.13072 10.3698 3.84661 10.5995 3.57551C10.8457 3.28495 11.1213 2.98316 11.3968 2.74854C11.5348 2.63096 11.6904 2.51499 11.8578 2.42541C12.0193 2.33902 12.2417 2.25 12.5 2.25C12.7583 2.25 12.9807 2.33902 13.1422 2.42541C13.3096 2.51499 13.4652 2.63096 13.6032 2.74854C13.8787 2.98316 14.1543 3.28495 14.4005 3.57551C14.6302 3.8466 14.8531 4.13064 15.0432 4.37277L15.0903 4.43276C15.3035 4.70419 15.4491 4.886 15.5378 4.97726C15.8265 5.27428 15.8198 5.74911 15.5227 6.03781C15.2257 6.32651 14.7509 6.31977 14.4622 6.02274C14.3051 5.86115 14.1029 5.60404 13.9107 5.35931L13.866 5.30237C13.6731 5.05665 13.4667 4.79385 13.2561 4.54522L13.25 4.53807V13Z" fill="#161616"/>
<path d="M4.33808 10.1018C4.39429 9.6914 4.10718 9.31315 3.6968 9.25694C3.28642 9.20072 2.90817 9.48783 2.85195 9.89821C2.78474 10.3889 2.75 10.8904 2.75 11.4C2.75 17.0698 7.07036 21.75 12.5 21.75C17.9296 21.75 22.25 17.0698 22.25 11.4C22.25 10.8904 22.2153 10.3889 22.148 9.89821C22.0918 9.48783 21.7136 9.20072 21.3032 9.25694C20.8928 9.31315 20.6057 9.6914 20.6619 10.1018C20.7199 10.5251 20.75 10.9586 20.75 11.4C20.75 16.334 17.0115 20.25 12.5 20.25C7.98851 20.25 4.25 16.3341 4.25 11.4C4.25 10.9586 4.28009 10.5251 4.33808 10.1018Z" fill="#161616"/>
</svg>
