<svg width="24" height="24" viewBox="0 0 24 24" fill="none" xmlns="http://www.w3.org/2000/svg">
<path fill-rule="evenodd" clip-rule="evenodd" d="M12 23C18.0751 23 23 18.0751 23 12C23 5.92487 18.0751 1 12 1C5.92487 1 1 5.92487 1 12C1 18.0751 5.92487 23 12 23Z" fill="white"/>
<path fill-rule="evenodd" clip-rule="evenodd" d="M23 12C23 18.0752 18.0752 23 12 23C5.9248 23 1 18.0752 1 12C1 5.9248 5.9248 1 12 1C18.0752 1 23 5.9248 23 12ZM8.70703 7.29297C8.31665 6.90234 7.68335 6.90234 7.29297 7.29297C6.90234 7.68335 6.90234 8.31665 7.29297 8.70703L10.5857 12L7.29297 15.293C6.90234 15.6833 6.90234 16.3167 7.29297 16.707C7.68335 17.0977 8.31665 17.0977 8.70703 16.707L12 13.4143L15.293 16.707C15.6833 17.0977 16.3167 17.0977 16.707 16.707C17.0977 16.3167 17.0977 15.6833 16.707 15.293L13.4143 12L16.707 8.70703C17.0977 8.31665 17.0977 7.68335 16.707 7.29297C16.3167 6.90234 15.6833 6.90234 15.293 7.29297L12 10.5857L8.70703 7.29297Z" fill="#B42318"/>
</svg>
