<svg width="40" height="40" viewBox="0 0 40 40" fill="none" xmlns="http://www.w3.org/2000/svg">
<path d="M0 20C0 8.95431 8.95431 0 20 0C31.0457 0 40 8.95431 40 20C40 31.0457 31.0457 40 20 40C8.95431 40 0 31.0457 0 20Z" fill="#F3F4F6"/>
<path d="M26 19C25.4477 19 25 19.4477 25 20C25 20.5523 25.4477 21 26 21H26.009C26.5613 21 27.009 20.5523 27.009 20C27.009 19.4477 26.5613 19 26.009 19H26Z" fill="#161616"/>
<path fill-rule="evenodd" clip-rule="evenodd" d="M21.052 9.25H18.948C18.0495 9.24997 17.3003 9.24995 16.7055 9.32991C16.0777 9.41432 15.5109 9.59999 15.0555 10.0555C14.6 10.5109 14.4143 11.0777 14.3299 11.7055C14.2499 12.3003 14.25 13.0495 14.25 13.948L14.25 15.2544C13.8612 15.2597 13.5171 15.2713 13.2117 15.2968C12.6344 15.345 12.1315 15.4467 11.665 15.6866C11.1065 15.9737 10.627 16.3906 10.271 16.9027C9.97157 17.3335 9.81377 17.8146 9.70522 18.3696C9.60044 18.9055 9.5314 19.5705 9.44628 20.3904L9.43866 20.4639C9.33644 21.4483 9.25407 22.2417 9.25015 22.8833C9.24612 23.5438 9.32242 24.128 9.59682 24.6653C9.9189 25.296 10.4159 25.8231 11.0278 26.19C11.5448 26.5001 12.128 26.6291 12.8033 26.6903C13.2664 26.7323 13.811 26.7447 14.4513 26.7484C14.3908 27.0221 14.3412 27.2644 14.307 27.4789C14.2476 27.8519 14.2227 28.2066 14.2915 28.5588C14.4495 29.3673 14.9471 30.0768 15.6716 30.4603C15.9939 30.6309 16.3409 30.6935 16.6988 30.7223C17.0446 30.75 17.4714 30.75 17.9811 30.75H22.0189C22.5286 30.75 22.9554 30.75 23.3011 30.7223C23.6591 30.6935 24.006 30.6309 24.3284 30.4603C25.0528 30.0768 25.5504 29.3673 25.7085 28.5588C25.7773 28.2066 25.7524 27.8519 25.6929 27.4789C25.6588 27.2644 25.6092 27.0221 25.5487 26.7484C26.189 26.7447 26.7336 26.7323 27.1967 26.6903C27.872 26.6291 28.4552 26.5001 28.9722 26.19C29.5841 25.8231 30.0811 25.296 30.4032 24.6653C30.6776 24.128 30.7539 23.5438 30.7499 22.8833C30.7459 22.2416 30.6636 21.4483 30.5613 20.4638L30.5537 20.3904C30.4686 19.5705 30.3996 18.9055 30.2948 18.3696C30.1862 17.8146 30.0284 17.3335 29.729 16.9027C29.373 16.3906 28.8935 15.9737 28.335 15.6866C27.8685 15.4467 27.3656 15.345 26.7883 15.2968C26.4829 15.2713 26.1388 15.2597 25.75 15.2544L25.75 13.948C25.75 13.0496 25.7501 12.3003 25.6701 11.7055C25.5857 11.0777 25.4 10.5109 24.9445 10.0555C24.4891 9.59999 23.9223 9.41432 23.2945 9.32991C22.6997 9.24995 21.9505 9.24997 21.052 9.25ZM15.1028 24.5244C14.9757 24.7366 14.8858 24.9753 14.807 25.2496C14.0136 25.2481 13.4179 25.2398 12.9386 25.1964C12.3634 25.1443 12.0379 25.0467 11.7992 24.9036C11.4232 24.6781 11.1243 24.3582 10.9327 23.9831C10.8141 23.7509 10.7468 23.4417 10.7501 22.8924C10.7535 22.3327 10.8275 21.6123 10.9347 20.5799C11.0242 19.7172 11.087 19.1194 11.1773 18.6575C11.2654 18.2073 11.3685 17.9519 11.5026 17.7589C11.716 17.452 12.0067 17.1976 12.351 17.0205C12.5719 16.9069 12.8559 16.8317 13.3366 16.7916C13.8272 16.7506 14.4552 16.75 15.354 16.75H24.646C25.5448 16.75 26.1728 16.7506 26.6634 16.7916C27.1441 16.8317 27.4281 16.9069 27.6491 17.0205C27.9933 17.1976 28.284 17.452 28.4974 17.7589C28.6315 17.9519 28.7346 18.2073 28.8227 18.6575C28.913 19.1194 28.9758 19.7172 29.0653 20.5799C29.1725 21.6123 29.2465 22.3327 29.2499 22.8924C29.2532 23.4417 29.1859 23.7509 29.0673 23.9831C28.8757 24.3582 28.5768 24.6781 28.2008 24.9036C27.9621 25.0467 27.6366 25.1443 27.0614 25.1964C26.5821 25.2398 25.9864 25.2481 25.193 25.2496C25.1142 24.9753 25.0242 24.7366 24.8971 24.5244C24.5905 24.0126 24.127 23.614 23.5705 23.4062C23.1486 23.2487 22.6745 23.2492 22.1016 23.2499H17.8983C17.3255 23.2492 16.8513 23.2487 16.4295 23.4062C15.873 23.614 15.4095 24.0126 15.1028 24.5244ZM24.25 15.25V14C24.25 13.036 24.2484 12.3884 24.1835 11.9054C24.1214 11.4439 24.0142 11.2464 23.8839 11.1161C23.7536 10.9858 23.5561 10.8786 23.0946 10.8165C22.6116 10.7516 21.964 10.75 21 10.75H19C18.036 10.75 17.3884 10.7516 16.9054 10.8165C16.4439 10.8786 16.2464 10.9858 16.1161 11.1161C15.9858 11.2464 15.8786 11.4439 15.8165 11.9054C15.7516 12.3884 15.75 13.036 15.75 14V15.25H24.25ZM18.0113 24.75C17.2646 24.75 17.088 24.7615 16.9542 24.8115C16.7332 24.894 16.531 25.0593 16.3895 25.2954C16.2974 25.4491 16.2383 25.6655 16.0597 26.4408C15.9274 27.0146 15.8372 27.4079 15.7883 27.7148C15.74 28.0183 15.7442 28.1713 15.7636 28.271C15.8411 28.6674 16.0776 28.978 16.3734 29.1346C16.4337 29.1665 16.5457 29.2052 16.8188 29.2271C17.0973 29.2494 17.4635 29.25 18.0113 29.25H21.9887C22.5364 29.25 22.9026 29.2494 23.1811 29.2271C23.4542 29.2052 23.5663 29.1665 23.6266 29.1346C23.9224 28.978 24.1588 28.6674 24.2363 28.271C24.2558 28.1713 24.26 28.0183 24.2116 27.7148C24.1627 27.4079 24.0725 27.0146 23.9403 26.4408C23.7617 25.6655 23.7025 25.4491 23.6104 25.2954C23.469 25.0593 23.2668 24.894 23.0458 24.8115C22.912 24.7615 22.7353 24.75 21.9887 24.75H18.0113Z" fill="#161616"/>
</svg>
