<svg width="40" height="40" viewBox="0 0 40 40" fill="none" xmlns="http://www.w3.org/2000/svg">
    <path d="M0 20C0 8.954 8.954 0 20 0s20 8.954 20 20-8.954 20-20 20S0 31.046 0 20z" fill="#F3F4F6"/>
    <rect x="14" y="9.5" width="18" height="21" rx="2" fill="#2FB776"/>
    <path d="M14 25.25h18v3.25a2 2 0 0 1-2 2H16a2 2 0 0 1-2-2v-3.25z" fill="url(#m0wja8vcba)"/>
    <path fill="#229C5B" d="M23 20h9v5.25h-9z"/>
    <path fill="#27AE68" d="M23 14.75h9V20h-9z"/>
    <path d="M14 11.5a2 2 0 0 1 2-2h7v5.25h-9V11.5z" fill="#1D854F"/>
    <path fill="#197B43" d="M14 14.75h9V20h-9z"/>
    <path fill="#1B5B38" d="M14 20h9v5.25h-9z"/>
    <path d="M14 17.75a3 3 0 0 1 3-3h3a3 3 0 0 1 3 3v7.5a3 3 0 0 1-3 3h-6v-10.5z" fill="#000" fill-opacity=".3"/>
    <rect x="8" y="13.25" width="13.5" height="13.5" rx="2" fill="url(#gltd29eefb)"/>
    <path d="m17.75 23.75-2.113-3.825 2.02-3.675h-1.65l-1.247 2.346-1.226-2.346h-1.702l2.031 3.675-2.113 3.825h1.65l1.33-2.486 1.319 2.486h1.701z" fill="#fff"/>
    <defs>
        <linearGradient id="m0wja8vcba" x1="14" y1="27.875" x2="32" y2="27.875" gradientUnits="userSpaceOnUse">
            <stop stop-color="#163C27"/>
            <stop offset="1" stop-color="#2A6043"/>
        </linearGradient>
        <linearGradient id="gltd29eefb" x1="8" y1="20" x2="21.5" y2="20" gradientUnits="userSpaceOnUse">
            <stop stop-color="#185A30"/>
            <stop offset="1" stop-color="#176F3D"/>
        </linearGradient>
    </defs>
</svg>
