<svg width="22" height="22" viewBox="0 0 22 22" fill="none" xmlns="http://www.w3.org/2000/svg">
<path d="M9.16615 13.898C9.30415 14.117 9.54416 14.249 9.80116 14.249L9.80214 14.25C9.80914 14.25 9.81615 14.2498 9.82316 14.2495C9.83017 14.2493 9.83718 14.249 9.84418 14.249C10.1172 14.233 10.3602 14.071 10.4782 13.825C10.4942 13.789 12.2012 10.283 14.3482 9.16503C14.7162 8.97303 14.8582 8.52002 14.6672 8.15302C14.4752 7.78502 14.0222 7.64303 13.6552 7.83403C11.8502 8.77303 10.4001 10.915 9.66015 12.184C9.03815 11.606 8.39915 11.254 8.36015 11.233C7.99615 11.035 7.54218 11.17 7.34418 11.533C7.14618 11.896 7.27918 12.351 7.64218 12.55C7.64243 12.5501 7.64333 12.5507 7.64486 12.5515C7.70385 12.5849 8.69341 13.1456 9.16615 13.898Z" fill="#067647"/>
<path fill-rule="evenodd" clip-rule="evenodd" d="M8.46313 20.2001C9.07111 20.8541 9.90306 21.749 11.001 21.749C12.0989 21.749 12.9308 20.8541 13.5388 20.2001L13.5564 20.1813C13.66 20.0702 13.7579 19.9651 13.846 19.877C14.399 19.325 14.668 19.213 15.449 19.213C15.564 19.213 15.6875 19.2168 15.8148 19.2206L15.828 19.221C16.647 19.245 17.768 19.277 18.52 18.532C19.278 17.78 19.246 16.651 19.222 15.827L19.2216 15.8135C19.2177 15.6863 19.214 15.563 19.214 15.448C19.214 14.667 19.334 14.389 19.931 13.792C21.104 12.62 21.75 11.973 21.75 11C21.75 10.0271 21.104 9.38107 19.9311 8.20819C19.3351 7.61119 19.214 7.333 19.214 6.552C19.214 6.43707 19.2177 6.31378 19.2216 6.18657L19.222 6.17305C19.246 5.34805 19.278 4.22004 18.52 3.46704C17.7695 2.72352 16.6524 2.7549 15.8339 2.77789L15.829 2.77803L15.8101 2.7786C15.6839 2.7824 15.5633 2.78604 15.449 2.78604C14.765 2.78604 14.316 2.59204 13.793 2.06904C12.621 0.896043 11.974 0.25 11.001 0.25C10.028 0.25 9.38205 0.895975 8.20917 2.06886C7.68617 2.59186 7.23698 2.78604 6.55298 2.78604C6.43781 2.78604 6.31619 2.78234 6.1899 2.77851L6.17397 2.77803C5.34897 2.75403 4.22097 2.72203 3.46797 3.48003C2.72297 4.23203 2.75496 5.35304 2.77896 6.17104L2.77952 6.18995C2.78333 6.31609 2.78696 6.43672 2.78696 6.55103C2.78696 7.23503 2.59297 7.68403 2.06997 8.20703C0.896971 9.37903 0.250977 10.026 0.250977 10.999C0.250977 11.972 0.896969 12.618 2.06997 13.791C2.66597 14.388 2.78696 14.666 2.78696 15.447C2.78696 15.562 2.78322 15.6855 2.77936 15.8128L2.77896 15.826C2.75496 16.65 2.72298 17.779 3.48198 18.532C4.23398 19.277 5.35497 19.245 6.17397 19.221L6.18717 19.2206C6.3145 19.2168 6.43795 19.213 6.55298 19.213C7.33398 19.213 7.60396 19.324 8.15596 19.876C8.24896 19.969 8.35313 20.0811 8.46313 20.2001ZM9.21597 18.815C8.37997 17.981 7.73298 17.713 6.55298 17.713L6.55098 17.712C6.42292 17.712 6.28649 17.7157 6.14531 17.7196L6.12896 17.72C5.54996 17.737 4.83099 17.757 4.53599 17.465C4.23999 17.17 4.25995 16.448 4.27695 15.867L4.27739 15.8509C4.28124 15.7096 4.28496 15.5731 4.28496 15.445C4.28496 14.265 3.98798 13.59 3.12798 12.729L3.11621 12.7172C2.26325 11.8633 1.74897 11.3484 1.74897 10.997C1.74897 10.644 2.26792 10.1251 3.12783 9.26519C3.92783 8.46619 4.28496 7.62802 4.28496 6.54902C4.28496 6.42076 4.28129 6.28514 4.27747 6.14397L4.27695 6.125C4.25995 5.548 4.23898 4.82903 4.53198 4.53403C4.82698 4.23803 5.54898 4.258 6.12998 4.275L6.14628 4.27544C6.28747 4.27929 6.42387 4.28301 6.55195 4.28301C7.62995 4.28301 8.46797 3.92603 9.26797 3.12603C10.128 2.26603 10.647 1.74702 11 1.74702C11.353 1.74702 11.8719 2.26596 12.7318 3.12588C13.5308 3.92588 14.369 4.28301 15.448 4.28301C15.5762 4.28301 15.7118 4.27934 15.8529 4.27552L15.872 4.275C16.449 4.258 17.168 4.23703 17.463 4.53003C17.759 4.82503 17.739 5.54703 17.722 6.12803L17.7215 6.14452C17.7177 6.28565 17.714 6.42198 17.714 6.55C17.714 7.73 18.011 8.40502 18.871 9.26602L18.8824 9.27744C19.7356 10.1316 20.25 10.6466 20.25 10.998C20.25 11.351 19.747 11.855 18.871 12.73C17.995 13.605 17.714 14.265 17.714 15.446C17.714 15.5741 17.7177 15.7104 17.7215 15.8515L17.722 15.868C17.739 16.448 17.76 17.17 17.463 17.465C17.168 17.758 16.448 17.737 15.87 17.72L15.8535 17.7196C15.7123 17.7157 15.576 17.712 15.448 17.712C14.268 17.712 13.621 17.98 12.785 18.815C12.6794 18.9206 12.573 19.035 12.4607 19.1557L12.4359 19.1824C12.0162 19.6331 11.4435 20.248 11.001 20.248C10.557 20.248 9.98196 19.63 9.56196 19.178C9.54509 19.16 9.52836 19.1422 9.51175 19.1244C9.41019 19.0159 9.31308 18.9122 9.21597 18.815Z" fill="#067647"/>
</svg>
