<svg width="20" height="20" viewBox="0 0 20 20" fill="none" xmlns="http://www.w3.org/2000/svg">
<path fill-rule="evenodd" clip-rule="evenodd" d="M12.6703 1.49534C13.6574 0.908247 14.8749 0.88985 15.8789 1.44725C16.2954 1.67846 16.6753 2.06679 17.2402 2.64431L17.3936 2.80103C17.9606 3.37981 18.34 3.76717 18.5653 4.19064C19.1058 5.20655 19.0882 6.43555 18.5185 7.43514C18.281 7.85179 17.8905 8.22769 17.3073 8.78911L9.29173 16.5094C8.14103 17.6181 7.43178 18.3015 6.53434 18.652C5.63559 19.0031 4.65838 18.9773 3.07738 18.9357L2.67158 18.9251C2.43987 18.9191 2.20564 18.913 2.01225 18.8807C1.79014 18.8437 1.52633 18.7585 1.31763 18.5217C1.11079 18.2869 1.05771 18.016 1.04529 17.7931C1.03431 17.5961 1.05275 17.36 1.07129 17.1228L1.10539 16.6851C1.21312 15.2996 1.27898 14.4526 1.61342 13.6829C1.94829 12.9121 2.52037 12.2925 3.45375 11.2815L11.3441 2.73266C11.8923 2.13833 12.2608 1.73888 12.6703 1.49534ZM15.2722 2.54012C14.6574 2.1988 13.9143 2.20985 13.3092 2.5697C13.0773 2.70765 12.8393 2.95572 12.1876 3.66186L12.1196 3.7355L16.3549 7.97081L16.3619 7.9641C17.0524 7.29906 17.2962 7.05528 17.4325 6.8162C17.7898 6.18927 17.801 5.41547 17.4618 4.77774C17.3323 4.5345 17.0955 4.28337 16.4245 3.59793C15.7526 2.91161 15.5078 2.67095 15.2722 2.54012ZM4.4507 12.0444L11.2711 4.65479L15.4545 8.83811L8.52551 15.5118C7.24006 16.7499 6.71606 17.2391 6.07956 17.4877C5.44445 17.7358 4.73747 17.7286 2.97104 17.6824L2.73772 17.6763C2.60479 17.6729 2.4995 17.6701 2.40909 17.6653C2.36224 17.6629 2.32373 17.6601 2.2918 17.657C2.29213 17.5568 2.30231 17.4151 2.32008 17.1871L2.34257 16.8983C2.46246 15.3596 2.51902 14.7354 2.75989 14.181C3.0003 13.6276 3.41395 13.1677 4.4507 12.0444Z" fill="#161616"/>
<path d="M11.667 17.7084C11.3218 17.7084 11.042 17.9882 11.042 18.3334C11.042 18.6786 11.3218 18.9584 11.667 18.9584H18.3337C18.6788 18.9584 18.9587 18.6786 18.9587 18.3334C18.9587 17.9882 18.6788 17.7084 18.3337 17.7084H11.667Z" fill="#161616"/>
</svg>
