<svg width="20" height="20" viewBox="0 0 20 20" fill="none" xmlns="http://www.w3.org/2000/svg">
<path d="M7.91667 14.3751C7.57149 14.3751 7.29167 14.0953 7.29167 13.7501L7.29167 8.75008C7.29167 8.4049 7.57149 8.12508 7.91667 8.12508C8.26184 8.12508 8.54167 8.4049 8.54167 8.75008L8.54167 13.7501C8.54167 14.0953 8.26184 14.3751 7.91667 14.3751Z" fill="#B42318"/>
<path d="M12.7083 8.75008C12.7083 8.4049 12.4285 8.12508 12.0833 8.12508C11.7382 8.12508 11.4583 8.4049 11.4583 8.75008V13.7501C11.4583 14.0953 11.7382 14.3751 12.0833 14.3751C12.4285 14.3751 12.7083 14.0953 12.7083 13.7501V8.75008Z" fill="#B42318"/>
<path fill-rule="evenodd" clip-rule="evenodd" d="M10.0552 1.04175H10.0018C9.58075 1.04174 9.22356 1.04173 8.92715 1.06871C8.61261 1.09735 8.31962 1.15936 8.03631 1.31001C7.92449 1.36947 7.8178 1.43809 7.71732 1.51517C7.46273 1.71048 7.28477 1.95136 7.12826 2.22569C6.98076 2.48421 6.83263 2.80921 6.65799 3.19236L6.30879 3.95842H2.5C2.15482 3.95842 1.875 4.23824 1.875 4.58342C1.875 4.92859 2.15482 5.20842 2.5 5.20842H3.16161L3.63194 12.9993C3.6948 14.0407 3.74469 14.8671 3.84847 15.5272C3.95489 16.2041 4.12601 16.7679 4.46926 17.2611C4.78326 17.7124 5.18781 18.0932 5.65712 18.3795C6.17013 18.6924 6.74321 18.8292 7.42534 18.8946C8.09048 18.9584 8.91832 18.9584 9.96154 18.9584H10.0263C11.0681 18.9584 11.895 18.9584 12.5593 18.8948C13.2407 18.8294 13.8131 18.6928 14.3258 18.3805C14.7948 18.0948 15.1992 17.7146 15.5133 17.2641C15.8567 16.7717 16.0283 16.2088 16.1355 15.5328C16.2401 14.8736 16.2911 14.0484 16.3554 13.0085L16.8376 5.20842H17.5C17.8452 5.20842 18.125 4.92859 18.125 4.58342C18.125 4.23824 17.8452 3.95842 17.5 3.95842H13.7714L13.3618 3.1135C13.1826 2.74394 13.0306 2.43023 12.8809 2.18082C12.722 1.91606 12.5433 1.68404 12.2918 1.49642C12.1924 1.42228 12.0871 1.35633 11.977 1.29922C11.6985 1.1547 11.4117 1.09515 11.1042 1.06764C10.8145 1.04173 10.4658 1.04174 10.0552 1.04175ZM15.5852 5.20842H13.3935C13.3847 5.20861 13.3758 5.20861 13.3669 5.20842H6.72416C6.715 5.20862 6.70582 5.20862 6.69663 5.20842H4.41389L4.87772 12.8917C4.94298 13.9726 4.98992 14.7391 5.0833 15.333C5.1751 15.917 5.30366 16.2718 5.49526 16.5471C5.71011 16.8559 5.9869 17.1164 6.30801 17.3123C6.59437 17.487 6.95632 17.5939 7.54471 17.6503C8.14321 17.7078 8.91114 17.7084 9.99397 17.7084C11.0754 17.7084 11.8423 17.7078 12.44 17.6505C13.0277 17.5941 13.3893 17.4874 13.6754 17.313C13.9963 17.1175 14.2731 16.8574 14.488 16.5492C14.6796 16.2743 14.8085 15.92 14.901 15.3369C14.9951 14.7439 15.043 13.9785 15.1098 12.8991L15.5852 5.20842ZM12.3822 3.95842H7.68253L7.78421 3.73536C7.97304 3.3211 8.098 3.0484 8.21397 2.84514C8.32406 2.65219 8.40305 2.56457 8.47817 2.50694C8.52384 2.4719 8.57234 2.44071 8.62316 2.41369C8.70676 2.36923 8.81925 2.3337 9.04048 2.31356C9.27353 2.29235 9.5735 2.29175 10.0288 2.29175C10.4729 2.29175 10.7654 2.29233 10.9928 2.31267C11.2087 2.33198 11.319 2.36605 11.4014 2.40878C11.4514 2.43474 11.4992 2.46472 11.5444 2.49842C11.6188 2.5539 11.6976 2.63832 11.8091 2.82411C11.9267 3.01993 12.0547 3.2828 12.2485 3.68249L12.3822 3.95842Z" fill="#B42318"/>
</svg>
