<svg width="24" height="24" viewBox="0 0 24 24" fill="none" xmlns="http://www.w3.org/2000/svg">
<path d="M3.25049 11.9995C3.25049 12.3731 3.41614 12.7196 3.57301 12.9799C3.74228 13.2607 3.96993 13.5506 4.21967 13.8333C4.72067 14.4003 5.37436 15.0093 6.00872 15.5602C6.64682 16.1143 7.28271 16.6245 7.75774 16.9953C7.99565 17.181 8.19412 17.3324 8.33353 17.4377C8.40325 17.4904 8.45825 17.5316 8.49607 17.5598L8.53964 17.5922L8.5512 17.6007L8.55521 17.6037C8.88871 17.8493 9.35865 17.7784 9.60431 17.4449C9.84996 17.1115 9.77877 16.642 9.4453 16.3963L9.43258 16.3869L9.39253 16.3571C9.35711 16.3307 9.30468 16.2915 9.23769 16.2409C9.10366 16.1396 8.91151 15.993 8.68068 15.8128C8.21821 15.4519 7.60412 14.959 6.99222 14.4276C6.3766 13.893 5.7803 13.3342 5.3438 12.8401C5.31619 12.8089 5.28947 12.7782 5.26365 12.748L20.0005 12.748C20.4147 12.748 20.7505 12.4122 20.7505 11.998C20.7505 11.5838 20.4147 11.248 20.0005 11.248L5.26619 11.248C5.29122 11.2188 5.3171 11.1891 5.3438 11.1589C5.7803 10.6648 6.3766 10.106 6.99222 9.57137C7.60412 9.04002 8.21821 8.54712 8.68068 8.18615C8.91151 8.00598 9.10365 7.85938 9.23769 7.75813C9.30468 7.70752 9.35711 7.66828 9.39252 7.64188L9.43257 7.61211L9.4453 7.60269C9.77877 7.35702 9.84996 6.88754 9.6043 6.55406C9.35864 6.22056 8.88871 6.14967 8.55521 6.39533L8.5512 6.39829L8.53964 6.40684L8.49607 6.43923C8.45825 6.46742 8.40325 6.50859 8.33353 6.56126C8.19412 6.66657 7.99564 6.81801 7.75773 7.00371C7.28271 7.37448 6.64681 7.88469 6.00872 8.4388C5.37435 8.98966 4.72066 9.59865 4.21967 10.1657C3.96993 10.4484 3.74228 10.7383 3.57301 11.0191C3.41709 11.2778 3.25248 11.6218 3.25051 11.9928" fill="white"/>
</svg>
