<svg width="24" height="24" viewBox="0 0 24 24" fill="none" xmlns="http://www.w3.org/2000/svg">
<path fill-rule="evenodd" clip-rule="evenodd" d="M7.5859 4.23049C6.75461 4.68856 5.8653 5.1786 4.95246 5.4695C4.47274 5.62237 4.14843 5.72611 3.91797 5.81631C3.76592 5.87582 3.69994 5.9134 3.67876 5.92582C3.67082 5.94175 3.65704 5.97467 3.6394 6.03642C3.60052 6.17247 3.56572 6.36034 3.5074 6.68338C3.36422 7.47645 3.27855 8.26014 3.24947 9.02836C3.23381 9.44228 2.88556 9.76513 2.47165 9.74946C2.05773 9.7338 1.73488 9.38555 1.75055 8.97164C1.78237 8.13072 1.87599 7.27694 2.03126 6.41689L2.03679 6.38625C2.08763 6.10445 2.13512 5.84128 2.19713 5.62426C2.26547 5.38515 2.36852 5.13522 2.56903 4.91265C2.79216 4.66497 3.10661 4.52307 3.37129 4.41948C3.65252 4.30941 4.02373 4.19113 4.47161 4.04841L4.49703 4.04031C5.25969 3.79727 5.95419 3.41463 6.73768 2.98297C7.05783 2.80657 7.39292 2.62196 7.75352 2.43537C8.94708 1.81779 10.3153 1.25 11.9983 1.25C13.6812 1.25 15.05 1.8178 16.2442 2.43536C16.6049 2.62191 16.94 2.80646 17.2604 2.98283C18.0444 3.41457 18.7395 3.79731 19.5026 4.04036L19.528 4.04845C19.9758 4.19108 20.3471 4.30933 20.6283 4.41934C20.893 4.5229 21.2074 4.66476 21.4306 4.91243C21.6312 5.13501 21.7342 5.38496 21.8026 5.6241C21.8646 5.84115 21.9121 6.10438 21.963 6.38624L21.9685 6.41684C22.1238 7.27687 22.2175 8.13064 22.2495 8.97154C22.2652 9.38546 21.9424 9.73374 21.5285 9.74946C21.1146 9.76518 20.7663 9.44237 20.7506 9.02846C20.7214 8.26021 20.6356 7.4765 20.4924 6.68341C20.4341 6.36032 20.3992 6.17241 20.3603 6.03633C20.3427 5.97457 20.3289 5.94164 20.321 5.9257C20.2998 5.91328 20.2338 5.87572 20.0818 5.81624C19.8513 5.72609 19.5271 5.6224 19.0474 5.46961C18.1342 5.17875 17.2444 4.68872 16.4125 4.23062C16.1191 4.06899 15.8327 3.91127 15.5551 3.76774C14.4414 3.19177 13.3269 2.75 11.9983 2.75C10.6697 2.75 9.55583 3.19171 8.44285 3.7676C8.16543 3.91114 7.87928 4.06882 7.5859 4.23049Z" fill="#067647"/>
<path d="M3.92867 17.41C3.70223 17.0632 3.79982 16.5984 4.14665 16.372C4.49349 16.1456 4.95823 16.2431 5.18467 16.59C6.41689 18.4773 8.23776 19.9922 10.6562 20.9169C11.3214 21.1713 11.5402 21.25 12.0015 21.25C12.4629 21.25 12.6816 21.1713 13.3468 20.9169C15.765 19.9922 17.5853 18.4773 18.817 16.5901C19.0434 16.2432 19.5081 16.1455 19.855 16.3719C20.2018 16.5983 20.2995 17.063 20.0731 17.4099C18.6648 19.568 16.5895 21.2828 13.8826 22.318L13.8497 22.3306C13.1991 22.5794 12.7532 22.75 12.0015 22.75C11.2499 22.75 10.8039 22.5794 10.1533 22.3306L10.1205 22.318C7.41343 21.2829 5.33764 19.568 3.92867 17.41Z" fill="#067647"/>
<path d="M7.96967 11.4697C8.26256 11.1768 8.73744 11.1768 9.03033 11.4697L9.5 11.9393L9.96967 11.4697C10.2626 11.1768 10.7374 11.1768 11.0303 11.4697C11.3232 11.7626 11.3232 12.2374 11.0303 12.5303L10.5607 13L11.0303 13.4697C11.3232 13.7626 11.3232 14.2374 11.0303 14.5303C10.7374 14.8232 10.2626 14.8232 9.96967 14.5303L9.5 14.0607L9.03033 14.5303C8.73744 14.8232 8.26256 14.8232 7.96967 14.5303C7.67678 14.2374 7.67678 13.7626 7.96967 13.4697L8.43934 13L7.96967 12.5303C7.67678 12.2374 7.67678 11.7626 7.96967 11.4697Z" fill="#067647"/>
<path d="M4.03033 11.4697C3.73744 11.1768 3.26256 11.1768 2.96967 11.4697C2.67678 11.7626 2.67678 12.2374 2.96967 12.5303L3.43934 13L2.96967 13.4697C2.67678 13.7626 2.67678 14.2374 2.96967 14.5303C3.26256 14.8232 3.73744 14.8232 4.03033 14.5303L4.5 14.0607L4.96967 14.5303C5.26256 14.8232 5.73744 14.8232 6.03033 14.5303C6.32322 14.2374 6.32322 13.7626 6.03033 13.4697L5.56066 13L6.03033 12.5303C6.32322 12.2374 6.32322 11.7626 6.03033 11.4697C5.73744 11.1768 5.26256 11.1768 4.96967 11.4697L4.5 11.9393L4.03033 11.4697Z" fill="#067647"/>
<path d="M12.9697 11.4697C13.2626 11.1768 13.7374 11.1768 14.0303 11.4697L14.5 11.9393L14.9697 11.4697C15.2626 11.1768 15.7374 11.1768 16.0303 11.4697C16.3232 11.7626 16.3232 12.2374 16.0303 12.5303L15.5607 13L16.0303 13.4697C16.3232 13.7626 16.3232 14.2374 16.0303 14.5303C15.7374 14.8232 15.2626 14.8232 14.9697 14.5303L14.5 14.0607L14.0303 14.5303C13.7374 14.8232 13.2626 14.8232 12.9697 14.5303C12.6768 14.2374 12.6768 13.7626 12.9697 13.4697L13.4393 13L12.9697 12.5303C12.6768 12.2374 12.6768 11.7626 12.9697 11.4697Z" fill="#067647"/>
<path d="M19.0303 11.4697C18.7374 11.1768 18.2626 11.1768 17.9697 11.4697C17.6768 11.7626 17.6768 12.2374 17.9697 12.5303L18.4393 13L17.9697 13.4697C17.6768 13.7626 17.6768 14.2374 17.9697 14.5303C18.2626 14.8232 18.7374 14.8232 19.0303 14.5303L19.5 14.0607L19.9697 14.5303C20.2626 14.8232 20.7374 14.8232 21.0303 14.5303C21.3232 14.2374 21.3232 13.7626 21.0303 13.4697L20.5607 13L21.0303 12.5303C21.3232 12.2374 21.3232 11.7626 21.0303 11.4697C20.7374 11.1768 20.2626 11.1768 19.9697 11.4697L19.5 11.9393L19.0303 11.4697Z" fill="#067647"/>
</svg>
